STARTFONT 2.1
FONT -Monotype-Bookman Old Style-Bold-I-Normal--33-240-100-100-P-190-iso8859-9
SIZE 24 100 100
FONTBOUNDINGBOX 52 40 -6 -8

STARTPROPERTIES 24
FOUNDRY "Monotype"
FAMILY_NAME "Bookman Old Style"
WEIGHT_NAME "Bold"
SLANT "I"
SETWIDTH_NAME "Normal"
ADD_STYLE_NAME ""
PIXEL_SIZE 33
POINT_SIZE 240
RESOLUTION_X 100
RESOLUTION_Y 100
SPACING "P"
AVERAGE_WIDTH 190
CHARSET_REGISTRY "iso8859"
CHARSET_ENCODING "9"
FACE_NAME "Bookman Old Style Bold Italic ISO Latin5"
_DEC_DEVICE_FONTNAMES "PS=bookmanoldstyle-bit-lat5"
COPYRIGHT "Copyright (c) 1993 Monotype Typography Ltd."
CAP_HEIGHT 27
X_HEIGHT 20
WEIGHT 10
QUAD_WIDTH 23
DEFAULT_CHAR 160
FONT_DESCENT 8
FONT_ASCENT 32
ENDPROPERTIES

CHARS 191

STARTCHAR space
ENCODING 32
SWIDTH 340 0
DWIDTH 11 0
BBX 0 0 0 0
BITMAP
ENDCHAR

STARTCHAR exclam
ENCODING 33
SWIDTH 320 0
DWIDTH 11 0
BBX 10 23 3 0
BITMAP
0380
07C0
0FC0
0FC0
0FC0
0F80
0F80
1F00
1F00
1F00
1E00
1E00
1C00
1C00
1C00
3C00
0000
3800
7C00
FC00
FC00
F800
7000
ENDCHAR

STARTCHAR quotedbl
ENCODING 34
SWIDTH 380 0
DWIDTH 13 0
BBX 10 9 5 14
BITMAP
30C0
71C0
71C0
73C0
F380
E380
E380
C300
C300
ENDCHAR

STARTCHAR numbersign
ENCODING 35
SWIDTH 600 0
DWIDTH 20 0
BBX 16 22 5 0
BITMAP
071C
0738
0638
0E38
0E38
0E38
FFFF
FFFF
FFFF
0C70
1C70
1C70
FFFE
FFFE
FFFE
1CE0
18E0
38E0
38E0
38E0
38E0
39C0
ENDCHAR

STARTCHAR dollar
ENCODING 36
SWIDTH 680 0
DWIDTH 22 0
BBX 19 30 4 -4
BITMAP
000E00
000C00
001C00
001C00
03FCC0
0FFFC0
1FFFC0
1F3FC0
3E3BC0
3E33C0
3E31E0
3FB1E0
1FF000
1FFC00
0FFE00
03FF80
00FF80
F0FFC0
F0CFC0
F0C7C0
F9C7C0
FDC780
FFDF80
FFFF00
EFFE00
E3F800
038000
030000
030000
070000
ENDCHAR

STARTCHAR percent
ENCODING 37
SWIDTH 880 0
DWIDTH 29 0
BBX 27 23 4 0
BITMAP
07C00380
1FF00700
3C780E00
78781C00
78783800
F0783000
F0706000
F0F0C000
F0F1C000
71E38000
7FC70000
1F0E1F00
001C7FC0
0018F1C0
0031E1E0
0071E1E0
00E3C1E0
01C3C1C0
0383C3C0
0703C3C0
0601C780
0C01FF00
38007C00
ENDCHAR

STARTCHAR ampersand
ENCODING 38
SWIDTH 980 0
DWIDTH 32 0
BBX 31 23 3 0
BITMAP
001F8000
007FE000
00FFE000
01F1F000
01E1F000
01E1F000
01F1E000
007FC000
00FF8FF8
07FC0FF0
1FEF0FF0
3F0F83C0
7E0F8780
7C07C700
FC07EF1C
FC03FE3E
FC03FC3E
7E01F83E
7F03FC3C
3FFFFE7C
3FFFFFF8
0FFF3FF0
03FC1FC0
ENDCHAR

STARTCHAR quoteright
ENCODING 39
SWIDTH 320 0
DWIDTH 11 0
BBX 9 12 4 12
BITMAP
0E00
3F00
3F80
3F80
3F80
1B80
0700
0F00
1E00
FC00
7000
4000
ENDCHAR

STARTCHAR parenleft
ENCODING 40
SWIDTH 260 0
DWIDTH 9 0
BBX 11 31 2 -8
BITMAP
0080
01C0
03E0
07C0
0780
0F80
0F00
1F00
1E00
3E00
3E00
3C00
7C00
7C00
7C00
7800
F800
F800
F800
F800
F000
F000
F000
F000
F000
F000
F000
7800
7800
3800
2000
ENDCHAR

STARTCHAR parenright
ENCODING 41
SWIDTH 260 0
DWIDTH 9 0
BBX 11 31 -1 -8
BITMAP
0080
03C0
03C0
03C0
01E0
01E0
01E0
01E0
01E0
01E0
01E0
03E0
03E0
03E0
03E0
03C0
07C0
07C0
07C0
0780
0F80
0F80
0F00
1F00
1F00
3E00
3C00
7C00
F800
7000
2000
ENDCHAR

STARTCHAR asterisk
ENCODING 42
SWIDTH 460 0
DWIDTH 15 0
BBX 12 12 5 11
BITMAP
0700
0700
C700
F600
F6F0
7FF0
0FF0
3E00
7B00
F380
6380
0180
ENDCHAR

STARTCHAR plus
ENCODING 43
SWIDTH 600 0
DWIDTH 20 0
BBX 16 15 5 4
BITMAP
0380
0380
0380
0380
0380
0380
FFFF
FFFF
FFFF
0380
0380
0380
0380
0380
0380
ENDCHAR

STARTCHAR comma
ENCODING 44
SWIDTH 340 0
DWIDTH 11 0
BBX 8 12 2 -6
BITMAP
1C
3E
7F
7F
3F
3B
0E
1E
3C
F8
F0
80
ENDCHAR

STARTCHAR minus
ENCODING 45
SWIDTH 600 0
DWIDTH 20 0
BBX 16 3 5 10
BITMAP
FFFF
FFFF
FFFF
ENDCHAR

STARTCHAR period
ENCODING 46
SWIDTH 340 0
DWIDTH 11 0
BBX 6 6 3 0
BITMAP
78
FC
FC
FC
FC
78
ENDCHAR

STARTCHAR slash
ENCODING 47
SWIDTH 360 0
DWIDTH 12 0
BBX 20 29 -2 -5
BITMAP
0000F0
0001E0
0001E0
0003C0
000780
000780
000F00
000F00
001E00
001E00
003C00
003C00
007800
007800
00F000
00F000
01E000
03E000
03C000
078000
078000
0F0000
0F0000
1E0000
1E0000
3C0000
3C0000
780000
F80000
ENDCHAR

STARTCHAR zero
ENCODING 48
SWIDTH 680 0
DWIDTH 22 0
BBX 20 23 4 0
BITMAP
00FF00
03FFC0
07FFC0
0FC7E0
1F83F0
3F01F0
3E01F0
7E01F0
7E01F0
7C01F0
FC03F0
FC03F0
FC03F0
F803E0
F807E0
F807E0
F807C0
F80FC0
FC1F80
7E3F00
3FFE00
1FFC00
0FF000
ENDCHAR

STARTCHAR one
ENCODING 49
SWIDTH 680 0
DWIDTH 22 0
BBX 15 23 5 0
BITMAP
000E
007E
07FC
0FFC
0FFC
007C
00F8
00F8
00F8
00F8
01F0
01F0
01F0
01F0
01F0
03E0
03E0
03E0
03E0
07E0
7FFE
FFFE
FFFC
ENDCHAR

STARTCHAR two
ENCODING 50
SWIDTH 680 0
DWIDTH 22 0
BBX 22 24 2 -1
BITMAP
003F80
01FFE0
03FFF0
07FFF8
0F81FC
0F00FC
0E00FC
1E00FC
1E00F8
0601F8
0003F0
0007E0
000FC0
003F80
007E00
00F878
03F070
078070
1FFFF0
7FFFE0
7FFFE0
7FFFE0
FFFFC0
0000C0
ENDCHAR

STARTCHAR three
ENCODING 51
SWIDTH 680 0
DWIDTH 22 0
BBX 20 23 3 0
BITMAP
00FE00
03FF80
07FFE0
0FFFE0
0F07F0
1E03F0
1C03F0
1C03E0
0003E0
000FC0
00FF80
00FC00
00FF80
000FC0
0007E0
7007E0
F807E0
F807E0
FC0FC0
7E1FC0
3FFF80
1FFE00
07F800
ENDCHAR

STARTCHAR four
ENCODING 52
SWIDTH 680 0
DWIDTH 22 0
BBX 21 23 3 0
BITMAP
0003E0
0007E0
001FE0
003FC0
007FC0
00FFC0
01F7C0
03EFC0
07CF80
1F8F80
3F0F80
7C0F80
781F00
FFFFF8
FFFFF0
FFFFF0
FFFFF0
003E00
003E00
003E00
007E00
007C00
007C00
ENDCHAR

STARTCHAR five
ENCODING 53
SWIDTH 680 0
DWIDTH 22 0
BBX 21 24 3 0
BITMAP
000018
03FFF8
03FFF0
07FFF0
07FFF0
07FFF0
0F0000
0F0000
0F0000
0FFC00
1FFF00
1FFFC0
1FFFC0
001FE0
0007E0
0003E0
7003E0
F803E0
F807E0
7C07C0
7F1F80
3FFF00
1FFE00
07F800
ENDCHAR

STARTCHAR six
ENCODING 54
SWIDTH 680 0
DWIDTH 22 0
BBX 20 23 4 0
BITMAP
000FF0
007FE0
01FFE0
07FF00
0FF000
1FC000
1F8000
3F0000
7EFC00
7EFF00
7FFF80
FFFFC0
FE0FC0
FC07E0
FC07E0
F807E0
F807E0
F807C0
7C0FC0
7E3F80
3FFF00
1FFE00
07F800
ENDCHAR

STARTCHAR seven
ENCODING 55
SWIDTH 680 0
DWIDTH 22 0
BBX 21 24 5 0
BITMAP
0C0000
1FFFF8
1FFFF8
3FFFF8
3FFFF0
7FFDE0
7803C0
700780
F00F00
101E00
003E00
007C00
00F800
01F800
01F000
03F000
07E000
07E000
0FC000
0FC000
0F8000
1F8000
1F8000
1F8000
ENDCHAR

STARTCHAR eight
ENCODING 56
SWIDTH 680 0
DWIDTH 22 0
BBX 20 23 3 0
BITMAP
00FF00
03FFC0
07FFE0
0FC7F0
1F01F0
1F01F0
1F01F0
1F83E0
1FE7C0
0FFF80
07FE00
03FF80
0FFFC0
3F3FE0
7C0FE0
7C07E0
F803E0
F803E0
FC07C0
7E1FC0
7FFF80
3FFF00
07FC00
ENDCHAR

STARTCHAR nine
ENCODING 57
SWIDTH 680 0
DWIDTH 22 0
BBX 19 23 4 0
BITMAP
03FC00
0FFF00
1FFF80
3F8FC0
7E07E0
7C03E0
FC03E0
FC03E0
FC07E0
FC07E0
7E0FE0
7FFFE0
3FFFC0
1FF7C0
07CFC0
001F80
003F00
007F00
01FE00
7FFC00
FFF000
FFC000
FC0000
ENDCHAR

STARTCHAR colon
ENCODING 58
SWIDTH 340 0
DWIDTH 11 0
BBX 8 16 3 0
BITMAP
1E
3F
3F
3F
3E
1C
00
00
00
00
38
7C
FC
FC
FC
78
ENDCHAR

STARTCHAR semicolon
ENCODING 59
SWIDTH 340 0
DWIDTH 11 0
BBX 10 22 2 -6
BITMAP
0780
0FC0
0FC0
0FC0
0FC0
0700
0000
0000
0000
0000
0C00
3F00
3F00
3F00
3F80
1B00
0700
0E00
3E00
FC00
F000
4000
ENDCHAR

STARTCHAR less
ENCODING 60
SWIDTH 620 0
DWIDTH 20 0
BBX 16 18 5 2
BITMAP
0003
000F
003F
00FE
03F8
0FE0
3F80
FC00
F000
F800
7F00
1FC0
07F0
01FC
007F
001F
0007
0001
ENDCHAR

STARTCHAR equal
ENCODING 61
SWIDTH 600 0
DWIDTH 20 0
BBX 16 9 5 7
BITMAP
FFFF
FFFF
FFFF
0000
0000
0000
FFFF
FFFF
FFFF
ENDCHAR

STARTCHAR greater
ENCODING 62
SWIDTH 620 0
DWIDTH 20 0
BBX 16 18 5 2
BITMAP
8000
E000
FC00
7F00
1FC0
07F0
01FC
007F
000F
003F
00FE
03F8
0FE0
3F80
FE00
F000
C000
8000
ENDCHAR

STARTCHAR question
ENCODING 63
SWIDTH 620 0
DWIDTH 20 0
BBX 17 23 6 0
BITMAP
1FF000
3FFC00
7FFE00
FE7F00
F81F80
F00F80
600F80
000F80
001F80
007F80
1FFF00
1FFE00
1FFC00
1FF000
1C0000
3C0000
000000
380000
7C0000
FC0000
FC0000
F80000
700000
ENDCHAR

STARTCHAR at
ENCODING 64
SWIDTH 780 0
DWIDTH 26 0
BBX 28 29 2 -7
BITMAP
001FF000
00F01C00
01800600
07000100
0C000080
18000040
18000040
300F7820
201CB820
6038F820
6070F020
40F0F020
C0E0F020
C1E1E020
C1E1E020
C1C1E040
C3C3E040
C3C5C080
43CDC100
43FBC310
63F3CC10
21E1F020
30000020
10000040
08000080
04000300
03000600
00E03800
001FC000
ENDCHAR

STARTCHAR A
ENCODING 65
SWIDTH 720 0
DWIDTH 24 0
BBX 25 23 0 0
BITMAP
0003F000
0003F000
0007F000
000FF000
000FF000
001EF000
001EF800
003CF800
0078F800
0078F800
00F0F800
01E0F800
01FFFC00
03FFFC00
03FFFC00
07807C00
0F807C00
0F007C00
1F007E00
3F00FE00
7FC3FF80
FFC3FF00
FF87FF00
ENDCHAR

STARTCHAR B
ENCODING 66
SWIDTH 720 0
DWIDTH 24 0
BBX 25 23 1 0
BITMAP
07FFFC00
07FFFE00
07FFFF00
01F83F80
01F81F80
01F01F80
01F01F80
01F03F00
03F07E00
03FFFC00
03FFF000
03FFF800
07E0FE00
07E03E00
07E03F00
07C03F00
07C03F00
0FC07F00
0FC07E00
0FC7FE00
7FFFFC00
7FFFF800
FFFFC000
ENDCHAR

STARTCHAR C
ENCODING 67
SWIDTH 700 0
DWIDTH 23 0
BBX 22 23 3 0
BITMAP
007F18
03FFF8
07FFF8
0FF1FC
1FC07C
3F803C
3F003C
7E003C
7E001C
FE0000
FC0000
FC0000
FC0000
FC0000
FC0000
FE0020
7E0070
7F00F8
3F83F0
1FFFE0
0FFF80
07FF00
01F800
ENDCHAR

STARTCHAR D
ENCODING 68
SWIDTH 760 0
DWIDTH 25 0
BBX 26 23 1 0
BITMAP
07FFF800
07FFFE00
0FFFFF00
01F07F00
01F03F80
01F01F80
03F00FC0
03F00FC0
03E00FC0
03E00FC0
07E00FC0
07E00FC0
07E00FC0
07C01FC0
07C01F80
0FC03F80
0FC03F00
0F807F00
0F80FE00
1F87FC00
7FFFF800
FFFFE000
FFFF8000
ENDCHAR

STARTCHAR E
ENCODING 69
SWIDTH 720 0
DWIDTH 24 0
BBX 25 23 1 0
BITMAP
07FFFE00
07FFFF00
0FFFFF00
03FFFF00
01F01F00
01F00780
01F0E380
03F1C300
03F1C000
03E3C000
03FFC000
07FFC000
07FF8000
07C38000
07C38780
0FC38700
0FC00F00
0FC01E00
0F807E00
1FFFFC00
7FFFFC00
FFFFF800
FFFFF800
ENDCHAR

STARTCHAR F
ENCODING 70
SWIDTH 660 0
DWIDTH 22 0
BBX 24 23 1 0
BITMAP
07FFFC
07FFFE
07FFFE
01FFFE
01F01F
01F00F
01F007
03F1C6
03F1C0
03E3C0
03FF80
07FF80
07FF80
07C780
07C700
07C700
0FC700
0FC000
0F8000
1FC000
7FF000
FFE000
FFE000
ENDCHAR

STARTCHAR G
ENCODING 71
SWIDTH 760 0
DWIDTH 25 0
BBX 24 23 3 0
BITMAP
007F9C
03FFFC
07FFFC
0FF1FC
1FC07C
3F803C
3F003C
7E001C
7E0000
FE0000
FC0000
FC07FF
FC07FF
FC07FF
FC00F8
FC01F8
7E01F8
7F01F0
3F83F0
3FFFF0
1FFFF0
07FEE0
01F0E0
ENDCHAR

STARTCHAR H
ENCODING 72
SWIDTH 800 0
DWIDTH 26 0
BBX 29 23 1 0
BITMAP
07FF3FF8
07FF3FF8
0FFE3FF8
03F80FC0
01F00FC0
01F00FC0
03F00F80
03F00F80
03F01F80
03E01F80
07FFFF00
07FFFF00
07FFFF00
07C03F00
07C03F00
0FC03E00
0FC03E00
0F807E00
0F807E00
1F807E00
7FF3FF80
FFE3FF80
FFE7FF80
ENDCHAR

STARTCHAR I
ENCODING 73
SWIDTH 380 0
DWIDTH 13 0
BBX 16 23 1 0
BITMAP
07FF
0FFE
0FFE
03F8
01F0
03F0
03F0
03E0
03E0
03E0
07E0
07E0
07C0
07C0
0FC0
0FC0
0F80
0F80
0F80
1F80
FFE0
FFE0
FFE0
ENDCHAR

STARTCHAR J
ENCODING 74
SWIDTH 620 0
DWIDTH 20 0
BBX 24 23 1 0
BITMAP
0007FF
0007FF
000FFE
0001F8
0001F0
0001F0
0003F0
0003F0
0003E0
0003E0
0007E0
0007E0
1007C0
7807C0
7C0FC0
FC0FC0
FC0F80
FC1F80
7E1F00
7FFF00
3FFE00
1FF800
03E000
ENDCHAR

STARTCHAR K
ENCODING 75
SWIDTH 780 0
DWIDTH 26 0
BBX 28 23 1 0
BITMAP
07FF3FF0
07FF7FF0
0FFE7FF0
01F81FC0
01F03F00
01F07E00
03F0FC00
03F1F000
03E3E000
03EFC000
03EFC000
07FFE000
07FFE000
07FBF000
07E1F800
0FC1F800
0FC0FC00
0F80FC00
0F807E00
1F807F00
7FF3FF80
FFE3FF80
FFE3FF80
ENDCHAR

STARTCHAR L
ENCODING 76
SWIDTH 640 0
DWIDTH 21 0
BBX 24 23 0 0
BITMAP
07FF00
07FF00
07FF00
01F800
01F000
01F000
01F000
03F000
03F000
03E000
03E000
07E000
07E000
07E000
07C006
07C00F
0FC01E
0FC03E
0F807C
1FC7FC
7FFFF8
7FFFF8
FFFFF0
ENDCHAR

STARTCHAR M
ENCODING 77
SWIDTH 860 0
DWIDTH 28 0
BBX 32 23 1 0
BITMAP
07FE07FF
07FE07FE
0FFE0FFE
01DE0EF8
03DE1EF0
03DE1DF0
03DE3FF0
03DE3BE0
039E7BE0
079E73E0
079EF3E0
079EE7E0
071EE7C0
071FC7C0
0F1FC7C0
0F1F87C0
0F1F8FC0
0E1F0F80
1E1F0F80
1E1F1F80
FF9E7FE0
FF9E7FE0
FF9CFFE0
ENDCHAR

STARTCHAR N
ENCODING 78
SWIDTH 740 0
DWIDTH 24 0
BBX 28 23 1 0
BITMAP
07FC3FF0
07FC3FE0
0FFE3FE0
01FE0F80
01FE0F00
01FF0F00
03DF0F00
03DF0E00
03DF1E00
03DF9E00
038F9E00
078F9E00
078FBC00
0787DC00
0707FC00
0F07FC00
0F07F800
0F03F800
0F03F800
1F03F800
7FC1F800
FFC1F000
FF81F000
ENDCHAR

STARTCHAR O
ENCODING 79
SWIDTH 760 0
DWIDTH 25 0
BBX 24 23 3 0
BITMAP
007FC0
01FFF0
07FFF8
0FF1FC
1FC0FE
3F807E
3F003F
7F003F
7E003F
FE003F
FE003F
FC003F
FC007F
FC007F
FC007E
FC007E
7E00FC
7E01FC
7F03F8
3F87F0
1FFFE0
07FF80
01FE00
ENDCHAR

STARTCHAR P
ENCODING 80
SWIDTH 640 0
DWIDTH 21 0
BBX 23 23 1 0
BITMAP
07FFF0
07FFF8
0FFFFC
01F1FE
01F07E
03F07E
03F07E
03E07E
03E0FC
03E3FC
07FFF8
07FFF0
07FFC0
07C000
07C000
0FC000
0FC000
0F8000
0F8000
1F8000
7FF000
FFE000
FFE000
ENDCHAR

STARTCHAR Q
ENCODING 81
SWIDTH 760 0
DWIDTH 25 0
BBX 24 30 3 -7
BITMAP
007FC0
01FFF0
07FFF8
0FF1FC
1FC0FE
3F807E
3F003F
7F003F
7E003F
FE003F
FE003F
FC003F
FC007F
FC007F
FC007E
FC007E
7E00FE
7E01FC
7F01F8
3F87F0
1FFFE0
0FFFC0
03FF00
03F000
03F000
03F020
01FFF0
01FFF0
00FFE0
001F00
ENDCHAR

STARTCHAR R
ENCODING 82
SWIDTH 740 0
DWIDTH 24 0
BBX 25 23 1 0
BITMAP
07FFF000
07FFFE00
07FFFF00
01FFFF80
01F83F80
01F01F80
01F01F80
01F01F80
03F03F00
03E07F00
03FFFE00
03FFFC00
07FFE000
07E7C000
07C7E000
07C3F000
07C3F000
0FC1F800
0FC1F800
0FC0FC00
7FF0FF00
7FF07F00
FFE07F00
ENDCHAR

STARTCHAR S
ENCODING 83
SWIDTH 700 0
DWIDTH 23 0
BBX 21 23 4 0
BITMAP
03FE30
07FFB0
0FFFF8
1F87F8
3E01F8
3E00F8
3E0078
3F8078
3FE000
1FFE00
0FFF80
07FFC0
01FFE0
E03FF0
F007F0
F003F0
F801F0
FC01F0
FF03E0
FFFFE0
EFFFC0
E3FF00
C0FC00
ENDCHAR

STARTCHAR T
ENCODING 84
SWIDTH 700 0
DWIDTH 23 0
BBX 23 24 4 0
BITMAP
1C0018
1FFFF8
3FFFF8
3FFFFC
7E7E7C
787C3C
F87C3C
F0FC1C
E0FC1E
20F800
00F800
00F800
01F800
01F800
01F000
01F000
03F000
03F000
03F000
03E000
07E000
1FFC00
3FF800
3FF800
ENDCHAR

STARTCHAR U
ENCODING 85
SWIDTH 740 0
DWIDTH 24 0
BBX 24 23 5 0
BITMAP
7FF1FF
7FF1FF
FFE1FF
1F8078
1F0078
3F0078
3F00F0
3E00F0
3E00F0
3E00F0
7E00E0
7E01E0
7C01E0
7C01E0
FC01C0
FC03C0
FC03C0
FC07C0
7E0F80
7FFF00
3FFE00
1FFC00
03E000
ENDCHAR

STARTCHAR V
ENCODING 86
SWIDTH 660 0
DWIDTH 22 0
BBX 22 23 5 0
BITMAP
FFEFFC
FFCFF8
FFCFF8
7E03E0
7E03E0
3E03C0
3E07C0
3E0780
3E0F00
3F0F00
3F1E00
3F1E00
3F3C00
1F3C00
1F7800
1F7800
1F7000
1FF000
1FE000
1FE000
1FC000
0FC000
0F8000
ENDCHAR

STARTCHAR W
ENCODING 87
SWIDTH 1000 0
DWIDTH 33 0
BBX 33 23 5 0
BITMAP
FFCFFCFF80
FFCFFDFF80
FFDFF9FF00
7E07E07C00
3E07E07C00
3E07E07800
3E03E0F800
3E07E0F000
3E07E1F000
3F0FE1E000
3F0FE3E000
3F1FE3C000
3F3DE7C000
3F3BE78000
1F7BEF8000
1F73EF0000
1F73F70000
1FE1FE0000
1FE1FC0000
1FC1FC0000
1FC1F80000
1F81F80000
1F81F00000
ENDCHAR

STARTCHAR X
ENCODING 88
SWIDTH 740 0
DWIDTH 24 0
BBX 28 23 0 0
BITMAP
03FF9FF0
07FFBFF0
07FF3FF0
01FC0FC0
00FC0F80
007E1F00
007E3E00
003F7C00
001FF800
000FF000
001FE000
003FC000
003FC000
007BE000
00F3F000
01E3F000
03E1F800
07C1FC00
0F80FC00
1F80FE00
7FE3FF80
7FC3FF80
FFC7FF80
ENDCHAR

STARTCHAR Y
ENCODING 89
SWIDTH 660 0
DWIDTH 22 0
BBX 23 23 4 0
BITMAP
7FF7FE
7FE7FC
FFE7FC
3F81F0
1F81E0
1F83C0
0F87C0
0FCF80
0FCF00
07DE00
07FE00
03FC00
03F800
03F000
03F000
03F000
03E000
03E000
07E000
07E000
3FF800
3FF800
3FF800
ENDCHAR

STARTCHAR Z
ENCODING 90
SWIDTH 680 0
DWIDTH 22 0
BBX 25 23 1 0
BITMAP
01FFFF80
03FFFF00
03FFFF00
07F8FE00
07C1FC00
0F03FC00
0F07F800
1E0FF000
041FE000
001FC000
003F8000
007F0000
00FE0000
01FC0800
03F80C00
07F01E00
0FF03C00
1FE07C00
3FC0F800
7F87F800
7FFFF000
7FFFE000
FFFFE000
ENDCHAR

STARTCHAR bracketleft
ENCODING 91
SWIDTH 260 0
DWIDTH 9 0
BBX 14 31 0 -8
BITMAP
01FC
03FC
03F8
03C0
03C0
03C0
07C0
0780
0780
0780
0F80
0F00
0F00
0F00
1F00
1E00
1E00
1E00
1E00
3E00
3C00
3C00
3C00
7C00
7800
7800
7800
7800
FF00
FE00
FE00
ENDCHAR

STARTCHAR backslash
ENCODING 92
SWIDTH 580 0
DWIDTH 19 0
BBX 20 29 1 -5
BITMAP
F80000
780000
3C0000
3C0000
1E0000
1E0000
0F0000
0F0000
078000
078000
03C000
03C000
01E000
00F000
00F000
007800
007800
003C00
003C00
001E00
001E00
000F00
000F00
000780
000780
0003C0
0003E0
0001E0
0000F0
ENDCHAR

STARTCHAR bracketright
ENCODING 93
SWIDTH 260 0
DWIDTH 9 0
BBX 14 31 -3 -8
BITMAP
01FC
01FC
01BC
007C
0078
0078
0078
0078
00F8
00F0
00F0
00F0
01F0
01E0
01E0
01E0
03E0
03C0
03C0
03C0
03C0
07C0
0780
0780
0780
0F80
0F00
0F00
7F00
FF00
FE00
ENDCHAR

STARTCHAR asciicircum
ENCODING 94
SWIDTH 620 0
DWIDTH 20 0
BBX 16 13 5 10
BITMAP
03C0
03C0
07E0
07E0
0F70
0E70
1E78
1C38
3C3C
381C
781E
700E
F00F
ENDCHAR

STARTCHAR underscore
ENCODING 95
SWIDTH 500 0
DWIDTH 17 0
BBX 17 2 0 -4
BITMAP
FFFF80
FFFF80
ENDCHAR

STARTCHAR quoteleft
ENCODING 96
SWIDTH 320 0
DWIDTH 11 0
BBX 9 12 5 12
BITMAP
0100
0780
1F00
3C00
7800
7000
F400
FE00
FE00
7E00
7C00
3800
ENDCHAR

STARTCHAR a
ENCODING 97
SWIDTH 680 0
DWIDTH 22 0
BBX 22 16 3 0
BITMAP
01F8F0
07FEE0
1FFFE0
1F8BE0
3F07E0
7E07C0
7C07C0
7C0FC0
FC0FC0
FC1F80
FC1F80
FC7F90
7FFFFC
7FEFF8
3FC7F0
0F03C0
ENDCHAR

STARTCHAR b
ENCODING 98
SWIDTH 600 0
DWIDTH 20 0
BBX 19 24 2 0
BITMAP
00C000
1FC000
3FC000
3FC000
3F8000
0F8000
0F8000
0F8000
1F9F00
1F7F80
1F7FC0
1FFFC0
3FC7E0
3F87E0
3F07E0
3E07E0
3E07E0
7E0FC0
7C0FC0
7C1F80
7E3F00
FFFF00
FBFC00
F3F800
ENDCHAR

STARTCHAR c
ENCODING 99
SWIDTH 560 0
DWIDTH 18 0
BBX 17 16 3 0
BITMAP
01FC00
07FF00
0FFF80
1F9F80
3F0F80
7E0780
7E0300
FC0000
FC0000
FC0000
FC0200
7E0F00
7FFF00
3FFE00
1FF800
07C000
ENDCHAR

STARTCHAR d
ENCODING 100
SWIDTH 680 0
DWIDTH 22 0
BBX 21 24 3 0
BITMAP
000018
0007F8
0007F8
0007F0
0007F0
0001F0
0001F0
0001F0
03FBE0
0FFFE0
1FFFE0
3F87E0
3F07C0
7E07C0
7E07C0
7C0FC0
FC0F80
FC1F80
FC3F80
FC7F90
7FFFF8
7FEFF8
3FCFF0
0F03C0
ENDCHAR

STARTCHAR e
ENCODING 101
SWIDTH 560 0
DWIDTH 18 0
BBX 18 16 2 0
BITMAP
00FE00
07FF80
0FFFC0
1F87C0
3F07C0
7E1F80
7FFF00
FFFE00
FFE000
FC0000
FC0300
7E0F80
7FFF00
3FFE00
1FF800
07E000
ENDCHAR

STARTCHAR f
ENCODING 102
SWIDTH 420 0
DWIDTH 14 0
BBX 24 31 -3 -7
BITMAP
0001FC
0007FE
000FFF
000FBF
001F1E
001F00
001F00
001F00
00FFE0
00FFC0
01FFC0
003E00
003E00
007C00
007C00
007C00
007C00
00F800
00F800
00F800
00F800
00F800
01F000
01F000
01F000
01F000
F3E000
F3E000
FFC000
FF8000
7E0000
ENDCHAR

STARTCHAR g
ENCODING 103
SWIDTH 620 0
DWIDTH 20 0
BBX 21 23 1 -7
BITMAP
00FC78
03FF70
0FFFF0
1FC5F0
1F83F0
3F03E0
3F03E0
7E03E0
7E07E0
7E0FC0
7E0FC0
7E1FC0
3FFFC0
3FF780
1FEF80
07CF80
001F80
601F00
F03F00
FCFE00
FFFC00
FFF000
3FC000
ENDCHAR

STARTCHAR h
ENCODING 104
SWIDTH 700 0
DWIDTH 23 0
BBX 21 24 4 0
BITMAP
01C000
1FC000
3FC000
3F8000
7F8000
0F8000
0F8000
1F0000
1F1F00
1F7F80
1F7FC0
3FFFC0
3FC7C0
3F87C0
3F0F80
7F0F80
7E0F80
7E0F80
7C0F00
7C1F10
FC1FF0
F81FF8
F80FE0
F80380
ENDCHAR

STARTCHAR i
ENCODING 105
SWIDTH 380 0
DWIDTH 13 0
BBX 11 23 3 0
BITMAP
0380
07C0
0FC0
0FC0
07C0
0300
0000
0380
7F80
7F00
FF00
1F00
1F00
3E00
3E00
3E00
7C00
7C00
7C80
7FE0
7FC0
3F80
1E00
ENDCHAR

STARTCHAR j
ENCODING 106
SWIDTH 320 0
DWIDTH 11 0
BBX 18 30 -4 -7
BITMAP
000380
0007C0
000FC0
000FC0
000F80
000700
000000
000380
007F00
00FF00
00FF00
003F00
003E00
003E00
003E00
003E00
007C00
007C00
007C00
007C00
00FC00
00F800
00F800
00F800
01F800
71F000
F9F000
FFE000
FFC000
3F0000
ENDCHAR

STARTCHAR k
ENCODING 107
SWIDTH 700 0
DWIDTH 23 0
BBX 22 24 3 0
BITMAP
00E000
1FC000
3FC000
3FC000
3FC000
0F8000
0F8000
0F8000
0F83F0
1F8FF8
1F1FF8
1F3C78
1F7800
1F7800
3F7C00
3FFC00
3FBE00
3F3E00
7E3E00
7E3F10
7C1FFC
7C1FF8
7C0FF0
F803C0
ENDCHAR

STARTCHAR l
ENCODING 108
SWIDTH 380 0
DWIDTH 13 0
BBX 10 24 4 0
BITMAP
0180
7F80
7F80
7F80
7F00
1F00
1F00
1F00
3E00
3E00
3E00
3E00
3E00
7C00
7C00
7C00
7C00
F800
F800
F900
FFC0
FF80
7F00
3C00
ENDCHAR

STARTCHAR m
ENCODING 109
SWIDTH 960 0
DWIDTH 32 0
BBX 30 16 3 0
BITMAP
031E0F80
7F7F9FC0
FF7FBFE0
FFFFFFE0
3FCFE3E0
3F8FC3E0
3F0FC3E0
3E0F87C0
3E1F87C0
7E1F87C0
7C1F07C0
7C1F0F88
7C1F0FF8
FC3E07FC
F83E07F0
F83E01C0
ENDCHAR

STARTCHAR n
ENCODING 110
SWIDTH 680 0
DWIDTH 22 0
BBX 21 16 3 0
BITMAP
039F00
7F3F80
7F7FC0
FFFFC0
1FC7C0
3F8FC0
3F0FC0
3F0F80
3E0F80
3E0F80
7E1F00
7C1F10
7C1FF8
7C1FF0
F80FE0
F80780
ENDCHAR

STARTCHAR o
ENCODING 111
SWIDTH 600 0
DWIDTH 20 0
BBX 18 15 3 1
BITMAP
03FC00
0FFE00
1FFF00
3F1F80
3E0FC0
7E0FC0
7C0FC0
FC0FC0
FC0F80
FC0F80
FC1F80
7C3F00
7FFE00
3FFC00
0FF000
ENDCHAR

STARTCHAR p
ENCODING 112
SWIDTH 660 0
DWIDTH 22 0
BBX 24 23 -1 -7
BITMAP
0038F0
07FBFC
07FBFE
07FFFE
01FC3F
01F83F
01F83F
03F03F
03E03F
03E07E
03E07E
07E0FC
07F1FC
07FFF8
07FFE0
07DFC0
0F8000
0F8000
0F8000
1F8000
7FE000
7FE000
FFE000
ENDCHAR

STARTCHAR q
ENCODING 113
SWIDTH 620 0
DWIDTH 20 0
BBX 19 23 2 -7
BITMAP
03F8E0
0FFEE0
1FFFE0
3F87E0
3F07C0
7E07C0
7E07C0
FC0FC0
FC0FC0
FC1F80
FC1F80
FC7F80
7FFF80
7FEF00
3FDF00
1F1F00
003F00
003E00
003E00
007E00
01FF80
01FF80
03FF80
ENDCHAR

STARTCHAR r
ENCODING 114
SWIDTH 500 0
DWIDTH 17 0
BBX 17 16 3 0
BITMAP
079F00
7F3F00
7F7F80
FFFF00
1FCF00
1F8000
3F0000
3F0000
3E0000
3E0000
7E0000
7C0000
7C0000
7C0000
7C0000
F80000
ENDCHAR

STARTCHAR s
ENCODING 115
SWIDTH 540 0
DWIDTH 18 0
BBX 17 16 3 0
BITMAP
03FC00
0FFF00
1FFF80
3F1F80
3E0780
3F8000
3FF000
1FFC00
07FE00
01FF00
E03F00
F01F00
FC3F00
FFFE00
7FFC00
0FF000
ENDCHAR

STARTCHAR t
ENCODING 116
SWIDTH 440 0
DWIDTH 15 0
BBX 13 22 3 0
BITMAP
01C0
03C0
0380
0780
0F80
1F80
7FF8
7FF8
FFF8
1F00
3F00
3E00
3E00
3E00
7E00
7C00
7C30
7C78
7FF0
7FE0
3FC0
0F00
ENDCHAR

STARTCHAR u
ENCODING 117
SWIDTH 680 0
DWIDTH 22 0
BBX 21 16 3 0
BITMAP
018000
0F03E0
7F07E0
FF07C0
DF07C0
3E07C0
3E0FC0
3E0F80
3E1F80
7E1F80
7C3F80
7C7F10
7FFFF0
7FDFF8
3F8FE0
1E0780
ENDCHAR

STARTCHAR v
ENCODING 118
SWIDTH 540 0
DWIDTH 18 0
BBX 17 17 3 0
BITMAP
000600
078F80
7F8F80
7F0F80
FF0F80
1F0F80
3F0780
3E0780
3E0F00
3E0F00
7E1E00
7C3E00
7C7C00
7FF800
7FF000
3FC000
1F0000
ENDCHAR

STARTCHAR w
ENCODING 119
SWIDTH 860 0
DWIDTH 28 0
BBX 27 17 3 0
BITMAP
00000180
0783E3C0
7F03E3E0
FF07C3E0
FF07C3E0
1F07C1E0
3E07C1E0
3E0FC1E0
3E0F81C0
3E1F83C0
7C1F83C0
7C3F8780
7C7F8F00
7FEFFE00
7FCFFC00
3F87F800
1F03E000
ENDCHAR

STARTCHAR x
ENCODING 120
SWIDTH 620 0
DWIDTH 20 0
BBX 22 17 0 0
BITMAP
000038
00E07C
07E0FC
07F1FC
0FF3F8
01FB80
00FF00
007E00
00FC00
00FE00
01FE00
03DF00
3F9F08
7F1FFC
FE0FFC
7C07F0
3003C0
ENDCHAR

STARTCHAR y
ENCODING 121
SWIDTH 600 0
DWIDTH 20 0
BBX 21 23 1 -7
BITMAP
006000
03C0F8
1FC1F0
3FC1F0
37C1F0
0FC1F0
0F83E0
0F83E0
0F87E0
1F87E0
1F0FC0
1F1FC0
1FFFC0
1FF3C0
0FFF80
07CF80
000F80
701F00
F83F00
FCFE00
FFFC00
7FF800
1FE000
ENDCHAR

STARTCHAR z
ENCODING 122
SWIDTH 560 0
DWIDTH 18 0
BBX 18 16 2 0
BITMAP
07F040
1FFFC0
3FFFC0
3E3F80
3C7F00
3CFE00
01FC00
03F800
07F000
0FE300
1FC780
3F8780
7E0F80
FFFF80
FFFF00
01FC00
ENDCHAR

STARTCHAR braceleft
ENCODING 123
SWIDTH 300 0
DWIDTH 10 0
BBX 12 29 1 -6
BITMAP
0070
01C0
0380
0700
0F00
0F00
0F00
0F00
0F00
0E00
0E00
1C00
1800
7000
8000
6000
3000
3800
3800
3800
7800
7000
F000
F000
E000
E000
E000
7000
3C00
ENDCHAR

STARTCHAR bar
ENCODING 124
SWIDTH 620 0
DWIDTH 20 0
BBX 4 31 11 -7
BITMAP
F0
F0
F0
F0
F0
F0
F0
F0
F0
F0
F0
F0
F0
F0
F0
F0
F0
F0
F0
F0
F0
F0
F0
F0
F0
F0
F0
F0
F0
F0
F0
ENDCHAR

STARTCHAR braceright
ENCODING 125
SWIDTH 300 0
DWIDTH 10 0
BBX 13 29 -1 -6
BITMAP
0380
00E0
0070
0070
0070
0070
00F0
00E0
01E0
01C0
01C0
01C0
00C0
0060
0018
0060
0180
0380
0700
0700
0700
0F00
0F00
0F00
0F00
0E00
0E00
1800
F000
ENDCHAR

STARTCHAR asciitilde
ENCODING 126
SWIDTH 620 0
DWIDTH 20 0
BBX 16 7 5 8
BITMAP
0002
3E02
7FC7
7FFE
E1FE
C07C
4000
ENDCHAR

STARTCHAR space
ENCODING 160
SWIDTH 340 0
DWIDTH 14 0
BBX 0 0 0 0
BITMAP
ENDCHAR

STARTCHAR exclamdown
ENCODING 161
SWIDTH 320 0
DWIDTH 11 0
BBX 10 23 1 -7
BITMAP
0380
07C0
0FC0
0FC0
0F80
0700
0000
0F00
0E00
0E00
0E00
1E00
1E00
3E00
3E00
3E00
7E00
7C00
FC00
FC00
FC00
F800
3000
ENDCHAR

STARTCHAR cent
ENCODING 162
SWIDTH 680 0
DWIDTH 22 0
BBX 16 23 6 0
BITMAP
0038
0070
0070
0070
03F8
0FFE
1FFF
3F1F
7C0F
7C0F
F806
F800
F800
F804
FC0C
7E3F
7FFE
3FF8
0FE0
0700
0700
0700
0E00
ENDCHAR

STARTCHAR sterling
ENCODING 163
SWIDTH 680 0
DWIDTH 22 0
BBX 23 23 1 0
BITMAP
000FC0
003FF0
007FF8
00FFFC
01F83C
01F81C
01F01C
01F000
01F000
0FFFC0
0FFFC0
1FFF80
00F800
00F810
1EF01E
7FF01C
FFE03C
E3FC7C
E1FFF8
E3FFF8
FFBFF0
7F0FF0
3E07C0
ENDCHAR

STARTCHAR currency
ENCODING 164
SWIDTH 680 0
DWIDTH 22 0
BBX 17 17 5 3
BITMAP
200200
73E700
FFFF80
7FFF00
3E3E00
380F00
780F00
700700
700700
700700
780F00
380F00
3E3E00
7FFF00
FFFF80
73E700
200200
ENDCHAR

STARTCHAR yen
ENCODING 165
SWIDTH 680 0
DWIDTH 22 0
BBX 23 23 4 0
BITMAP
7FF3FE
7FF7FE
7FE7FE
1F81F0
1F81E0
0F83E0
0FC7C0
0FC780
07CF00
07EE00
7FFFF0
7FFFE0
01F800
01F000
01F000
FFFFE0
FFFFC0
03F000
03E000
07F000
1FFC00
3FF800
3FF800
ENDCHAR

STARTCHAR brokenbar
ENCODING 166
SWIDTH 620 0
DWIDTH 20 0
BBX 4 31 11 -7
BITMAP
F0
F0
F0
F0
F0
F0
F0
F0
F0
F0
F0
F0
F0
F0
C0
00
10
70
F0
F0
F0
F0
F0
F0
F0
F0
F0
F0
F0
F0
F0
ENDCHAR

STARTCHAR section
ENCODING 167
SWIDTH 620 0
DWIDTH 20 0
BBX 21 28 1 -5
BITMAP
007F80
01FFE0
03FFF0
03E3F8
07C1F8
07C0F8
07E070
03FC00
01FF80
03FFC0
07FFE0
0F3FF0
1F07F0
1F01F0
1F81E0
1FF1E0
0FFFC0
07FF00
03FF80
007F80
301FC0
7807C0
FC07C0
FC07C0
7F1F80
3FFF00
1FFE00
07F800
ENDCHAR

STARTCHAR dieresis
ENCODING 168
SWIDTH 520 0
DWIDTH 17 0
BBX 12 5 6 19
BITMAP
78F0
F9F0
F9F0
F9F0
F0E0
ENDCHAR

STARTCHAR copyright
ENCODING 169
SWIDTH 780 0
DWIDTH 26 0
BBX 23 22 4 0
BITMAP
01FF00
0783C0
0C00E0
180030
307C98
61C38C
438184
C70086
C70006
8F0002
8F0002
8F0002
8F0002
C70006
C78006
438104
61C30C
30FC18
180030
0C0060
0783C0
01FF00
ENDCHAR

STARTCHAR ordfeminine
ENCODING 170
SWIDTH 440 0
DWIDTH 15 0
BBX 14 10 4 13
BITMAP
0FB8
3FF8
7C70
78F0
F0F0
F1F0
F1E0
FFE8
7EFC
3CF8
ENDCHAR

STARTCHAR guillemotleft
ENCODING 171
SWIDTH 380 0
DWIDTH 13 0
BBX 12 12 3 2
BITMAP
0C70
1CE0
39E0
7BC0
F380
F780
E780
E380
6380
6380
7380
7180
ENDCHAR

STARTCHAR logicalnot
ENCODING 172
SWIDTH 620 0
DWIDTH 20 0
BBX 16 9 5 6
BITMAP
FFFF
FFFF
FFFF
0007
0007
0007
0007
0007
0007
ENDCHAR

STARTCHAR hyphen
ENCODING 173
SWIDTH 280 0
DWIDTH 9 0
BBX 9 3 2 7
BITMAP
7F80
7F00
FF00
ENDCHAR

STARTCHAR registered
ENCODING 174
SWIDTH 780 0
DWIDTH 26 0
BBX 23 22 4 0
BITMAP
01FF00
0781C0
0C0060
180038
37FE08
61C70C
41C386
C1C386
C1C382
81C782
81FC02
81DE02
C1CE02
C1CF06
41C786
61C38C
27F3CC
300018
180030
0E00E0
03C7C0
00FF00
ENDCHAR

STARTCHAR macron
ENCODING 175
SWIDTH 480 0
DWIDTH 16 0
BBX 12 3 6 19
BITMAP
7FF0
FFF0
FFE0
ENDCHAR

STARTCHAR degree
ENCODING 176
SWIDTH 400 0
DWIDTH 13 0
BBX 9 9 7 14
BITMAP
3E00
7F00
E380
C180
C180
C180
6380
7F00
1E00
ENDCHAR

STARTCHAR plusminus
ENCODING 177
SWIDTH 600 0
DWIDTH 20 0
BBX 16 20 5 1
BITMAP
0380
0380
0380
0380
0380
0380
FFFF
FFFF
FFFF
0380
0380
0380
0380
0380
0380
0380
0000
FFFF
FFFF
FFFF
ENDCHAR

STARTCHAR twosuperior
ENCODING 178
SWIDTH 408 0
DWIDTH 13 0
BBX 13 12 3 11
BITMAP
0FE0
1FF0
3878
3078
3070
01F0
03C0
0F30
3C70
7FE0
FFE0
0060
ENDCHAR

STARTCHAR threesuperior
ENCODING 179
SWIDTH 408 0
DWIDTH 13 0
BBX 13 12 3 11
BITMAP
07E0
1FF0
1C78
3878
0070
03C0
07E0
20F0
F0F0
70F0
7FE0
1F80
ENDCHAR

STARTCHAR acute
ENCODING 180
SWIDTH 340 0
DWIDTH 11 0
BBX 7 7 8 18
BITMAP
0C
3E
3E
7E
F8
E0
40
ENDCHAR

STARTCHAR mu
ENCODING 181
SWIDTH 680 0
DWIDTH 22 0
BBX 20 23 2 -7
BITMAP
03E1F0
07C1F0
07C1F0
07C1F0
07C3E0
0FC3E0
0F83E0
0F83E0
0F87E0
0F87C0
1F07C0
1F07C0
1F07C0
3F9FC0
3FF7F0
37E7C0
77C300
700000
F00000
F00000
F00000
F00000
400000
ENDCHAR

STARTCHAR paragraph
ENCODING 182
SWIDTH 680 0
DWIDTH 22 0
BBX 19 29 4 -7
BITMAP
07FFE0
1FFF80
3FE300
7FE300
7FE300
FFE300
FFE300
FFE300
FFE300
7FE300
7FE300
7FE300
3FE300
1FE300
03E300
006300
006300
006300
006300
006300
006300
006300
006300
006300
006300
006300
006300
006300
006300
ENDCHAR

STARTCHAR periodcentered
ENCODING 183
SWIDTH 340 0
DWIDTH 11 0
BBX 6 6 5 8
BITMAP
78
FC
FC
FC
FC
78
ENDCHAR

STARTCHAR cedilla
ENCODING 184
SWIDTH 360 0
DWIDTH 12 0
BBX 7 7 0 -7
BITMAP
30
20
7C
0E
CE
FC
78
ENDCHAR

STARTCHAR onesuperior
ENCODING 185
SWIDTH 408 0
DWIDTH 13 0
BBX 9 12 5 11
BITMAP
0380
1F80
3F00
0700
0F00
0F00
0E00
0E00
1E00
1C00
FF80
FF80
ENDCHAR

STARTCHAR ordmasculine
ENCODING 186
SWIDTH 440 0
DWIDTH 15 0
BBX 12 10 5 13
BITMAP
0FC0
3FE0
7CF0
F8F0
F0F0
F0F0
F1E0
F3E0
7FC0
3F00
ENDCHAR

STARTCHAR guillemotright
ENCODING 187
SWIDTH 380 0
DWIDTH 13 0
BBX 12 12 2 2
BITMAP
18C0
18C0
18E0
1CE0
1CE0
1CE0
3CF0
39E0
7BC0
7380
E700
4100
ENDCHAR

STARTCHAR onequarter
ENCODING 188
SWIDTH 1020 0
DWIDTH 34 0
BBX 29 23 5 0
BITMAP
038001C0
1F800300
3F000700
07000E00
0F001C00
0F003800
0E007000
0E006000
1E00C000
1C01C000
FF838000
FF870078
000E01F0
001C03F0
00180F70
00301CE0
007070E0
00E07FF8
01C07FF8
038001C0
070001C0
060003C0
0C0003C0
ENDCHAR

STARTCHAR onehalf
ENCODING 189
SWIDTH 1020 0
DWIDTH 34 0
BBX 30 23 5 0
BITMAP
018001C0
1F800380
1F800700
07800E00
07000C00
07001800
0F003800
0E007000
0E00E000
0E01C000
7FC38000
FF8307F0
00060FF8
000E1C3C
001C183C
0038183C
00700078
00E001F0
00C003C0
01800E18
03803FF8
07007FF0
0E007FF0
ENDCHAR

STARTCHAR threequarters
ENCODING 190
SWIDTH 1020 0
DWIDTH 34 0
BBX 31 23 3 0
BITMAP
07E00070
1FF000C0
1C7801C0
38780380
00700700
03C00E00
07E00C00
20F01800
F0F03800
70F07000
7FE0E000
1F81C01E
0001807C
000300FC
000601FC
000E03B8
001C0F38
00381C38
00301FFE
00601FFE
00C00070
01C000F0
038000F0
ENDCHAR

STARTCHAR questiondown
ENCODING 191
SWIDTH 620 0
DWIDTH 20 0
BBX 17 23 2 -7
BITMAP
000700
000F80
001F80
001F80
001F00
000600
000000
001E00
001C00
07FC00
1FFC00
3FFC00
7FFC00
FE0000
FC0000
F80000
F80300
F80780
7C0F80
7F1F80
3FFF00
1FFE00
07F800
ENDCHAR

STARTCHAR Agrave
ENCODING 192
SWIDTH 720 0
DWIDTH 24 0
BBX 25 31 0 0
BITMAP
00038000
0007C000
0007E000
0003F000
0001F800
00007000
00000000
00000000
0003F000
0003F000
0007F000
000FF000
000FF000
001EF000
001EF800
003CF800
0078F800
0078F800
00F0F800
01E0F800
01FFFC00
03FFFC00
03FFFC00
07807C00
0F807C00
0F007C00
1F007E00
3F00FE00
7FC3FF80
FFC3FF00
FF87FF00
ENDCHAR

STARTCHAR Aacute
ENCODING 193
SWIDTH 720 0
DWIDTH 24 0
BBX 25 31 0 0
BITMAP
00003800
00007C00
0000FC00
0001F800
0003F000
0001C000
00000000
00000000
0003F000
0003F000
0007F000
000FF000
000FF000
001EF000
001EF800
003CF800
0078F800
0078F800
00F0F800
01E0F800
01FFFC00
03FFFC00
03FFFC00
07807C00
0F807C00
0F007C00
1F007E00
3F00FE00
7FC3FF80
FFC3FF00
FF87FF00
ENDCHAR

STARTCHAR Acircumflex
ENCODING 194
SWIDTH 720 0
DWIDTH 24 0
BBX 25 30 0 0
BITMAP
0000F000
0001F800
000FFC00
00079E00
00060400
00000000
00000000
0003F000
0003F000
0007F000
000FF000
000FF000
001EF000
001EF800
003CF800
0078F800
0078F800
00F0F800
01E0F800
01FFFC00
03FFFC00
03FFFC00
07807C00
0F807C00
0F007C00
1F007E00
3F00FE00
7FC3FF80
FFC3FF00
FF87FF00
ENDCHAR

STARTCHAR Atilde
ENCODING 195
SWIDTH 720 0
DWIDTH 24 0
BBX 25 29 0 0
BITMAP
0003C200
0007FF00
000FFE00
00043C00
00000000
00000000
0003F000
0003F000
0007F000
000FF000
000FF000
001EF000
001EF800
003CF800
0078F800
0078F800
00F0F800
01E0F800
01FFFC00
03FFFC00
03FFFC00
07807C00
0F807C00
0F007C00
1F007E00
3F00FE00
7FC3FF80
FFC3FF00
FF87FF00
ENDCHAR

STARTCHAR Adieresis
ENCODING 196
SWIDTH 720 0
DWIDTH 24 0
BBX 24 30 0 0
BITMAP
00078F
000F9F
000F9F
000F9F
00060E
000000
000000
0003F0
0003F0
0007F0
0007F0
000FF0
001EF0
001EF8
003CF8
003CF8
0078F8
00F8F8
00F0F8
01FFFC
03FFFC
03FFFC
07C07C
07807C
0F807C
1F007E
3F007E
7FC3FF
7FC3FF
FFC3FF
ENDCHAR

STARTCHAR Aring
ENCODING 197
SWIDTH 720 0
DWIDTH 24 0
BBX 24 32 0 0
BITMAP
0000E0
0001F0
000318
000318
000318
0001F0
0000E0
000000
000000
0003E0
0007E0
0007E0
000FF0
001FF0
001EF0
003DF0
007DF0
0079F0
00F1F8
00F1F8
01E0F8
03FFF8
03FFF8
07FFF8
0780FC
0F00FC
1F00FC
1E00FC
3E00FE
FFC3FF
FF87FF
FF87FE
ENDCHAR

STARTCHAR AE
ENCODING 198
SWIDTH 1140 0
DWIDTH 38 0
BBX 40 23 0 0
BITMAP
001FFFFFFC
003FFFFFFE
003FFFFFFE
000783E0FE
000F87E01E
000F07E00F
001F07E3C7
001E07C386
003C07C380
007C0FC780
00780FFF80
00FFFFFF00
01FFFFFF00
01FFFF8F00
03E01F870C
07C01F8F0E
07C01F001E
0F801F003C
0F803F007C
1F003F07F8
7FE1FFFFF8
FFC1FFFFF0
FFC1FFFFF0
ENDCHAR

STARTCHAR Ccedilla
ENCODING 199
SWIDTH 700 0
DWIDTH 23 0
BBX 21 30 4 -7
BITMAP
00FF38
03FFF8
07FFF8
0FE1F8
1F80F8
3F0078
7F0038
7E0038
7E0038
FC0000
FC0000
FC0000
FC0000
FC0000
FC0000
FC0020
7E0070
7F01F0
3F83E0
1FFFC0
0FFF80
07FE00
01F000
008000
00F000
003800
013800
033800
03F000
01E000
ENDCHAR

STARTCHAR Egrave
ENCODING 200
SWIDTH 720 0
DWIDTH 24 0
BBX 25 32 1 0
BITMAP
00040000
000F0000
001F8000
000F8000
0007C000
0003E000
0000C000
00000000
00000000
07FFFE00
07FFFF00
0FFFFF00
01F03F00
01F00F80
01F00780
03F0E380
03F1C200
03E1C000
03FFC000
03FFC000
07FFC000
07FF8000
07C38200
07C38780
0FC38700
0FC00F00
0FC01E00
0F803E00
1FC1FC00
7FFFFC00
FFFFF800
FFFFF800
ENDCHAR

STARTCHAR Eacute
ENCODING 201
SWIDTH 720 0
DWIDTH 24 0
BBX 25 32 1 0
BITMAP
00001000
00003C00
00007C00
0000FC00
0001F800
0001E000
00018000
00000000
00000000
07FFFE00
07FFFF00
0FFFFF00
01F83F00
01F00F80
01F00780
03F0E380
03F1C300
03E1C000
03E3C000
03FFC000
07FFC000
07FF8000
07C78000
07C38600
07C38780
0FC00F00
0FC01E00
0F803E00
1FC1FC00
7FFFFC00
FFFFF800
FFFFF800
ENDCHAR

STARTCHAR Ecircumflex
ENCODING 202
SWIDTH 720 0
DWIDTH 24 0
BBX 25 31 1 0
BITMAP
00008000
0003E000
000FF000
001FFC00
001C3800
00080800
00000000
00000000
07FFFE00
07FFFF00
0FFFFF00
01F83F00
01F00F80
01F00780
03F0E380
03F1C300
03E1C000
03E3C000
03FFC000
07FFC000
07FF8000
07C78000
07C38600
07C38780
0FC00F00
0FC01E00
0F803E00
1FC1FC00
7FFFFC00
FFFFF800
FFFFF800
ENDCHAR

STARTCHAR Edieresis
ENCODING 203
SWIDTH 720 0
DWIDTH 24 0
BBX 25 30 1 0
BITMAP
001E3C00
003E7C00
003E7C00
003E7C00
00183000
00000000
00000000
07FFFE00
07FFFE00
0FFFFE00
01F07F00
01F00F00
03F00700
03F1C780
03E1C200
03E1C000
03E3C000
07FF8000
07FF8000
07FF8000
07C78000
07C38600
0FC70F00
0FC00E00
0F801E00
0F807C00
1F81FC00
FFFFFC00
FFFFF800
FFFFF800
ENDCHAR

STARTCHAR Igrave
ENCODING 204
SWIDTH 380 0
DWIDTH 13 0
BBX 16 31 1 0
BITMAP
01E0
01F0
01F8
00F8
007C
001C
0000
0000
07FF
0FFE
0FFE
03F8
01F0
03F0
03F0
03E0
03E0
03E0
07E0
07E0
07C0
07C0
0FC0
0FC0
0F80
0F80
0F80
1F80
FFE0
FFE0
FFE0
ENDCHAR

STARTCHAR Iacute
ENCODING 205
SWIDTH 380 0
DWIDTH 13 0
BBX 16 31 1 0
BITMAP
003C
003E
007C
00FC
01F0
00C0
0000
0000
07FF
0FFE
0FFE
03F8
01F0
03F0
03F0
03E0
03E0
03E0
07E0
07E0
07C0
07C0
0FC0
0FC0
0F80
0F80
0F80
1F80
FFE0
FFE0
FFE0
ENDCHAR

STARTCHAR Icircumflex
ENCODING 206
SWIDTH 380 0
DWIDTH 13 0
BBX 17 31 1 0
BITMAP
001000
003800
00FE00
03FF00
03C780
010100
000000
000000
07FF00
0FFE00
0FFE00
03F800
01F000
03F000
03F000
03E000
03E000
03E000
07E000
07E000
07C000
07C000
0FC000
0FC000
0F8000
0F8000
0F8000
1F8000
FFE000
FFE000
FFE000
ENDCHAR

STARTCHAR Idieresis
ENCODING 207
SWIDTH 380 0
DWIDTH 13 0
BBX 18 30 0 0
BITMAP
01E3C0
03E7C0
03E7C0
03E7C0
018380
000000
000000
07FF00
07FF00
07FF00
01F800
01F800
01F000
01F000
01F000
03F000
03F000
03E000
03E000
03E000
07E000
07C000
07C000
07C000
0FC000
0FC000
0FC000
7FF000
7FF000
FFE000
ENDCHAR

STARTCHAR Gbreve
ENCODING 208
SWIDTH 760 0
DWIDTH 25 0
BBX 24 29 3 0
BITMAP
007070
003FF0
001FE0
000F80
000000
000000
00FF9C
03FFFC
07FFFC
0FF1FC
1FC07C
3F803C
3F003C
7E001C
7E0000
FE0000
FC0000
FC07FF
FC07FF
FC07FF
FC00F8
FC01F8
7E01F8
7F01F0
3F83F0
3FFFF0
1FFFF0
07FEE0
01F0E0
ENDCHAR

STARTCHAR Ntilde
ENCODING 209
SWIDTH 740 0
DWIDTH 24 0
BBX 28 29 1 0
BITMAP
0003C400
0007FE00
000FFE00
00043800
00000000
00000000
07FC3FF0
07FC3FE0
0FFE3FE0
01FE0F80
01FE0F00
01FF0F00
03DF0F00
03DF0E00
03DF1E00
03DF9E00
038F9E00
078F9E00
078FBC00
0787DC00
0707FC00
0F07FC00
0F07F800
0F03F800
0F03F800
1F03F800
7FC1F800
FFC1F000
FF81F000
ENDCHAR

STARTCHAR Ograve
ENCODING 210
SWIDTH 760 0
DWIDTH 25 0
BBX 24 31 3 0
BITMAP
003800
007C00
007E00
003F00
001F80
000380
000100
000000
007F80
01FFF0
07FFF8
0FF1FC
1FC0FE
3F807E
3F003F
7F003F
7E003F
FE003F
FE003F
FC003F
FC007F
FC007F
FC007E
FC00FE
7E00FC
7E01FC
3F03F8
3F8FF0
1FFFE0
07FF80
01FE00
ENDCHAR

STARTCHAR Oacute
ENCODING 211
SWIDTH 760 0
DWIDTH 25 0
BBX 24 31 3 0
BITMAP
000070
0000F8
0001F8
0003F0
0007E0
000780
000200
000000
007F80
01FFF0
07FFF8
0FF1FC
1FC0FE
3F807E
3F003F
7F003F
7E003F
FE003F
FE003F
FC003F
FC007F
FC007F
FC007E
FC00FE
7E00FC
7E01FC
3F03F8
3F8FF0
1FFFE0
07FF80
01FE00
ENDCHAR

STARTCHAR Ocircumflex
ENCODING 212
SWIDTH 760 0
DWIDTH 25 0
BBX 24 30 3 0
BITMAP
000700
000FC0
003FE0
007DF0
002020
000000
000000
007F80
01FFF0
07FFF8
0FF1FC
1FC0FE
3F807E
3F003F
7F003F
7E003F
FE003F
FE003F
FC003F
FC007F
FC007F
FC007E
FC00FE
7E00FC
7E01FC
3F03F8
3F8FF0
1FFFE0
07FF80
01FE00
ENDCHAR

STARTCHAR Otilde
ENCODING 213
SWIDTH 760 0
DWIDTH 25 0
BBX 24 29 3 0
BITMAP
001E10
003FF8
007FF0
0021E0
000000
000000
007F80
01FFF0
07FFF8
0FF1FC
1FC0FE
3F807E
3F003F
7F003F
7E003F
FE003F
FE003F
FC003F
FC007F
FC007F
FC007E
FC00FE
7E00FC
7E01FC
3F03F8
3F8FF0
1FFFE0
07FF80
01FE00
ENDCHAR

STARTCHAR Odieresis
ENCODING 214
SWIDTH 760 0
DWIDTH 25 0
BBX 24 30 3 0
BITMAP
003C78
007CF8
007CF8
007CF8
007870
000000
000000
007FC0
01FFF0
07FFF8
0FF1FC
1FC07E
3F807E
3F003F
7F003F
7E003F
FE003F
FE003F
FE003F
FC003F
FC007F
FC007E
FE007E
7E00FE
7E00FC
3F01F8
3FC7F0
1FFFE0
07FFC0
01FE00
ENDCHAR

STARTCHAR multiply
ENCODING 215
SWIDTH 600 0
DWIDTH 20 0
BBX 15 15 5 4
BITMAP
2004
600C
F01E
783C
3C78
1EF0
0FE0
07C0
0FC0
1FE0
3EF0
7C78
F83C
701E
200C
ENDCHAR

STARTCHAR Oslash
ENCODING 216
SWIDTH 760 0
DWIDTH 25 0
BBX 30 23 0 0
BITMAP
000FF818
003FFE3C
00FFFF70
01FC3FE0
03F81FC0
07F00FC0
07E00FE0
0FE03FE0
0FC07BE0
1FC0F7E0
1FC3C7E0
1F8787E0
1F8F0FE0
1F9C0FE0
1FB80FC0
1FF00FC0
0FC01F80
0FC03F80
0FE07F00
1FF0FE00
3BFFFC00
F0FFF000
607FC000
ENDCHAR

STARTCHAR Ugrave
ENCODING 217
SWIDTH 740 0
DWIDTH 24 0
BBX 24 31 5 0
BITMAP
003C00
003E00
003F00
001F00
000F80
000380
000000
000000
7FF1FF
7FF1FF
FFE1FF
1F8078
1F0078
3F0078
3F00F0
3E00F0
3E00F0
3E00F0
7E00E0
7E01E0
7C01E0
7C01E0
FC01C0
FC03C0
FC03C0
FC07C0
7E0F80
7FFF00
3FFE00
1FFC00
03E000
ENDCHAR

STARTCHAR Uacute
ENCODING 218
SWIDTH 740 0
DWIDTH 24 0
BBX 24 31 5 0
BITMAP
0003C0
0007C0
0007C0
000F80
001F00
000C00
000000
000000
7FF1FF
7FF1FF
FFE1FF
1F8078
1F0078
3F0078
3F00F0
3E00F0
3E00F0
3E00F0
7E00E0
7E01E0
7C01E0
7C01E0
FC01C0
FC03C0
FC03C0
FC07C0
7E0F80
7FFF00
3FFE00
1FFC00
03E000
ENDCHAR

STARTCHAR Ucircumflex
ENCODING 219
SWIDTH 740 0
DWIDTH 24 0
BBX 24 31 5 0
BITMAP
000100
000780
001FC0
007FF0
0038F0
002020
000000
000000
7FF1FF
7FF1FF
FFE1FF
1F8078
1F0078
3F0078
3F00F0
3E00F0
3E00F0
3E00F0
7E00E0
7E01E0
7C01E0
7C01E0
FC01C0
FC03C0
FC03C0
FC07C0
7E0F80
7FFF00
3FFE00
1FFC00
03E000
ENDCHAR

STARTCHAR Udieresis
ENCODING 220
SWIDTH 740 0
DWIDTH 24 0
BBX 25 31 4 0
BITMAP
003C7800
007CF800
007CF800
007CF800
0078F000
00000000
00000000
00000000
7FF1FF80
7FF1FF00
FFF1FF00
1F807800
1F007800
3F007800
3F007000
3F007000
3E00F000
3E00F000
7E00F000
7E00E000
7E01E000
7C01E000
FC01E000
FC01C000
FC03C000
FC07C000
7E0F8000
7FFF0000
3FFE0000
1FFC0000
03F00000
ENDCHAR

STARTCHAR Idotaccent
ENCODING 221
SWIDTH 380 0
DWIDTH 13 0
BBX 16 30 1 0
BITMAP
003C
007C
007C
007C
0078
0000
0000
07FF
07FE
0FFE
03F8
01F0
03F0
03F0
03E0
03E0
03E0
07E0
07E0
07C0
07C0
0FC0
0FC0
0FC0
0F80
0F80
1F80
FFE0
FFE0
FFE0
ENDCHAR

STARTCHAR Scedilla
ENCODING 222
SWIDTH 700 0
DWIDTH 23 0
BBX 21 30 4 -7
BITMAP
03FE30
07FFB0
0FFFF8
1F87F8
3E01F8
3E00F8
3E0078
3F8078
3FE000
1FFE00
0FFF80
07FFC0
01FFE0
E03FF0
F007F0
F003F0
F801F0
FC01F0
FF03E0
FFFFE0
FFFFC0
E7FF00
C1FC00
004000
007800
001C00
009C00
019C00
01F800
00F000
ENDCHAR

STARTCHAR germandbls
ENCODING 223
SWIDTH 660 0
DWIDTH 22 0
BBX 27 31 -3 -7
BITMAP
0000FF00
0003FF80
0007FFC0
000FC7E0
000F83E0
001F03E0
001F0FE0
001F3FC0
00FF7F80
00FE7800
01FEF800
003EFC00
003EFE00
007C7E00
007C3F00
007C1F80
007C0FC0
007C0FC0
00F987C0
00FBC7C0
00FBE780
00FBFF80
01F3FF00
01F0FC00
01F00000
01E00000
F1E00000
F3E00000
FFC00000
FF800000
7E000000
ENDCHAR

STARTCHAR agrave
ENCODING 224
SWIDTH 680 0
DWIDTH 22 0
BBX 22 25 3 0
BITMAP
002000
00F800
00F800
007C00
003E00
001F00
000600
000000
000000
01F8F0
07FEE0
1FFFE0
1F87E0
3F07E0
7E07C0
7C07C0
7C0FC0
FC0FC0
FC1F80
FC1F80
FC7F90
7FFFFC
7FEFF8
3FC7F0
0F03C0
ENDCHAR

STARTCHAR aacute
ENCODING 225
SWIDTH 680 0
DWIDTH 22 0
BBX 22 25 3 0
BITMAP
000180
0003C0
0007C0
000FC0
001F80
001E00
001800
000000
000000
01F8F0
07FEE0
1FFFE0
1F83E0
3F07E0
7E07C0
7C07C0
7C0FC0
FC0FC0
FC1F80
FC1F80
FC7F90
7FFFFC
7FEFF8
3FC7F0
0F03C0
ENDCHAR

STARTCHAR acircumflex
ENCODING 226
SWIDTH 680 0
DWIDTH 22 0
BBX 22 24 3 0
BITMAP
000200
000F80
003FC0
007FF0
0030E0
000000
000000
000000
01F8F0
07FEE0
1FFFE0
1F83E0
3F07E0
7E07C0
7C07C0
7C0FC0
FC0FC0
FC1F80
FC1F80
FC7F90
7FFFFC
7FEFF8
3FC7F0
0F03C0
ENDCHAR

STARTCHAR atilde
ENCODING 227
SWIDTH 680 0
DWIDTH 22 0
BBX 22 23 3 0
BITMAP
001E20
003FF0
007FF0
0061C0
000000
000000
000000
01F8F0
07FEE0
1FFFE0
1F83E0
3F07E0
7E07C0
7C07C0
7C0FC0
FC0FC0
FC1F80
FC1F80
FC7F90
7FFFFC
7FEFF8
3FC7F0
0F03C0
ENDCHAR

STARTCHAR adieresis
ENCODING 228
SWIDTH 680 0
DWIDTH 22 0
BBX 22 24 2 0
BITMAP
003C78
007CF8
007CF8
007CF8
007870
000000
000000
000000
01FCF0
07FEF0
0FFFE0
1FC7E0
3F03E0
7E03E0
7E07C0
7C07C0
FC0FC0
FC0FC0
FC1F80
FE3F88
7FFFF8
7FF7FC
3FE7F0
0F01C0
ENDCHAR

STARTCHAR aring
ENCODING 229
SWIDTH 680 0
DWIDTH 22 0
BBX 21 26 3 0
BITMAP
000700
000F80
0018C0
0018C0
0018C0
000F80
000700
000000
000000
000000
03F9E0
0FFEE0
1FFFE0
3F8FE0
3F07C0
7E07C0
7C07C0
7C0FC0
FC0F80
FC1F80
FC3F80
FC7F90
7FFFF8
7FEFF8
3FC7F0
0F03C0
ENDCHAR

STARTCHAR ae
ENCODING 230
SWIDTH 880 0
DWIDTH 29 0
BBX 28 16 2 0
BITMAP
03FC1F80
0FFFFFE0
1FFFFFE0
1F0FF1F0
3E0FE1F0
1C0FC1E0
001F87E0
07FFFF80
3FFFFE00
7E1F0000
F81F8040
F83F81C0
FCFFFFE0
FFEFFF80
7FC7FF00
3E00F000
ENDCHAR

STARTCHAR ccedilla
ENCODING 231
SWIDTH 560 0
DWIDTH 18 0
BBX 17 23 3 -7
BITMAP
01FC00
07FF00
1FFF00
1F9F80
3F0F80
7E0F00
7C0600
FC0000
FC0000
FC0000
FC0200
7C0E00
7FFF00
3FFC00
1FF800
038000
020000
03C000
00E000
04E000
0CE000
0FC000
078000
ENDCHAR

STARTCHAR egrave
ENCODING 232
SWIDTH 560 0
DWIDTH 18 0
BBX 18 25 2 0
BITMAP
008000
03E000
03F000
03F000
01F800
007C00
001800
000000
000000
00FE00
07FF80
0FFFC0
1F87C0
3F07C0
7E1F80
7FFF00
FFFE00
FFE000
FC0000
FC0300
7E0F80
7FFF00
3FFE00
1FF800
07E000
ENDCHAR

STARTCHAR eacute
ENCODING 233
SWIDTH 560 0
DWIDTH 18 0
BBX 18 25 2 0
BITMAP
000200
000F00
001F80
001F00
003E00
007C00
003000
000000
000000
00FE00
07FF80
0FFFC0
1F87C0
3F07C0
7E0F80
7FFF00
FFFE00
FFF000
FC0000
FC0300
7E0F00
7FFF80
3FFE00
1FF800
07E000
ENDCHAR

STARTCHAR ecircumflex
ENCODING 234
SWIDTH 560 0
DWIDTH 18 0
BBX 18 24 2 0
BITMAP
000C00
003E00
007F80
01FFC0
00E3C0
008040
000000
000000
00FE00
07FF80
0FFFC0
1F87C0
3F07C0
7E1F80
7FFF00
FFFE00
FFE000
FC0000
FC0300
7E0F80
7FFF00
3FFE00
1FF800
07E000
ENDCHAR

STARTCHAR edieresis
ENCODING 235
SWIDTH 560 0
DWIDTH 18 0
BBX 18 24 3 0
BITMAP
01E3C0
03E7C0
03E7C0
03E7C0
03C780
000000
000000
000000
01FC00
07FF00
0FFF80
1F8F80
3E0F80
7C1F00
7FFE00
FFFC00
FFC000
FC0000
FC0600
7E1F00
7FFE00
3FFC00
1FF800
07C000
ENDCHAR

STARTCHAR igrave
ENCODING 236
SWIDTH 380 0
DWIDTH 13 0
BBX 10 25 4 -1
BITMAP
1C00
3E00
3F00
1F80
07C0
0180
0000
0000
0380
FF00
FF00
FF00
FE00
3E00
3E00
3E00
7C00
7C00
7C00
FC00
F880
FF80
FFC0
7F80
3E00
ENDCHAR

STARTCHAR iacute
ENCODING 237
SWIDTH 380 0
DWIDTH 13 0
BBX 13 25 4 -1
BITMAP
0078
00F8
01F8
01F0
03E0
0380
0000
0000
0380
FF00
FF00
FF00
FE00
3E00
3E00
3E00
7C00
7C00
7C00
FC00
F880
FF80
FFC0
7F80
3E00
ENDCHAR

STARTCHAR icircumflex
ENCODING 238
SWIDTH 380 0
DWIDTH 13 0
BBX 13 25 4 -1
BITMAP
0100
0380
0FE0
3FF8
3C70
1010
0000
0000
0380
FF00
FF00
FF00
FE00
3E00
3E00
3E00
7C00
7C00
7C00
FC00
F880
FF80
FFC0
7F80
3E00
ENDCHAR

STARTCHAR idieresis
ENCODING 239
SWIDTH 380 0
DWIDTH 13 0
BBX 15 24 4 -1
BITMAP
0F1E
1F3E
1F3E
1F3E
0C18
0000
0000
0380
FF00
FF00
FF00
FE00
3E00
3E00
3E00
7C00
7C00
7C00
FC00
F880
FF80
FFC0
7F80
3E00
ENDCHAR

STARTCHAR gbreve
ENCODING 240
SWIDTH 620 0
DWIDTH 20 0
BBX 21 29 1 -7
BITMAP
007070
007FE0
003FC0
000F00
000000
000000
00FC78
03FF70
0FFFF0
1FC5F0
1F83F0
3F03E0
3F03E0
7E03E0
7E07E0
7E0FC0
7E0FC0
7E1FC0
3FFFC0
3FF780
1FEF80
07CF80
001F80
601F00
F03F00
FCFE00
FFFC00
FFF000
3FC000
ENDCHAR

STARTCHAR ntilde
ENCODING 241
SWIDTH 680 0
DWIDTH 22 0
BBX 21 23 3 0
BITMAP
001C20
003FF0
007FF0
0063C0
000000
000000
000000
039F00
7F3F80
7FFFC0
FFFFC0
1FC7C0
3F8FC0
3F0FC0
3F0F80
3E0F80
3E0F80
7E1F00
7C1F10
7C1FF8
7C1FF0
F80FE0
F80780
ENDCHAR

STARTCHAR ograve
ENCODING 242
SWIDTH 600 0
DWIDTH 20 0
BBX 18 25 3 0
BITMAP
008000
01E000
01F000
01F000
00F800
007C00
001800
000000
000000
03FC00
0FFE00
1FFF00
3F9F80
3E0FC0
7E0FC0
7C0FC0
FC0FC0
FC0FC0
FC0F80
FC1F80
7C1F00
7E7F00
3FFE00
1FF800
07E000
ENDCHAR

STARTCHAR oacute
ENCODING 243
SWIDTH 600 0
DWIDTH 20 0
BBX 18 25 3 0
BITMAP
000200
000780
000F80
001F00
003F00
003C00
003000
000000
000000
03FC00
0FFE00
1FFF00
3F9F80
3E0FC0
7E0FC0
7C0FC0
FC0FC0
FC0FC0
FC0F80
FC1F80
7C1F00
7E7F00
3FFE00
1FF800
07E000
ENDCHAR

STARTCHAR ocircumflex
ENCODING 244
SWIDTH 600 0
DWIDTH 20 0
BBX 18 24 3 0
BITMAP
001000
007C00
01FE00
03FF80
038700
000000
000000
000000
03FC00
0FFE00
1FFF00
3F9F80
3E0FC0
7E0FC0
7C0FC0
FC0FC0
FC0FC0
FC0F80
FC1F80
7C1F00
7E7F00
3FFE00
1FF800
07E000
ENDCHAR

STARTCHAR otilde
ENCODING 245
SWIDTH 600 0
DWIDTH 20 0
BBX 18 23 3 0
BITMAP
007880
00FFC0
01FF80
008F00
000000
000000
000000
03FC00
0FFE00
1FFF00
3F9F80
3E0FC0
7E0FC0
7C0FC0
FC0FC0
FC0FC0
FC0F80
FC1F80
7C1F00
7E7F00
3FFE00
1FF800
07E000
ENDCHAR

STARTCHAR odieresis
ENCODING 246
SWIDTH 600 0
DWIDTH 20 0
BBX 18 24 3 0
BITMAP
01E3C0
03E7C0
03E7C0
03E7C0
03C780
000000
000000
000000
03FC00
0FFE00
1FFF00
3F9F80
3F0FC0
7E0FC0
7C0FC0
FC0FC0
FC0FC0
FC0F80
FC1F80
7C1F00
7E3F00
3FFE00
1FF800
07F000
ENDCHAR

STARTCHAR divide
ENCODING 247
SWIDTH 600 0
DWIDTH 20 0
BBX 16 15 5 4
BITMAP
03C0
03C0
03C0
03C0
0000
0000
FFFF
FFFF
FFFF
0000
0000
03C0
03C0
03C0
03C0
ENDCHAR

STARTCHAR oslash
ENCODING 248
SWIDTH 600 0
DWIDTH 20 0
BBX 20 15 2 1
BITMAP
01FE20
07FF70
0FFFE0
1F8FC0
1F07E0
3F1FE0
3E3FE0
7E77E0
7EE7E0
7F87C0
7F0FC0
3E1F80
3FFF00
FFFE00
E7F800
ENDCHAR

STARTCHAR ugrave
ENCODING 249
SWIDTH 680 0
DWIDTH 22 0
BBX 21 24 3 0
BITMAP
00F000
00F800
00FC00
007C00
003E00
000E00
000000
000000
018000
0F03E0
7F07E0
FF07C0
DF07C0
3E07C0
3E0FC0
3E0F80
3E1F80
7E1F80
7C3F80
7C7F10
7FFFF0
7FDFF8
3F8FE0
1E0380
ENDCHAR

STARTCHAR uacute
ENCODING 250
SWIDTH 680 0
DWIDTH 22 0
BBX 21 24 3 0
BITMAP
0001C0
0003E0
0007E0
000FC0
001F00
000C00
000000
000000
018000
0F03E0
7F07E0
FF07C0
DF07C0
3E07C0
3E0FC0
3E0F80
3E1F80
7E1F80
7C3F80
7C7F10
7FFFF0
7FDFF8
3F8FE0
1E0380
ENDCHAR

STARTCHAR ucircumflex
ENCODING 251
SWIDTH 680 0
DWIDTH 22 0
BBX 21 23 3 0
BITMAP
001E00
007F00
01FFC0
00F3C0
008080
000000
000000
018000
0F03E0
7F07E0
FF07C0
DF07C0
3E07C0
3E0FC0
3E0F80
3E1F80
7E1F80
7C3F80
7C7F10
7FFFF0
7FDFF8
3F8FE0
1E0380
ENDCHAR

STARTCHAR udieresis
ENCODING 252
SWIDTH 680 0
DWIDTH 22 0
BBX 21 23 3 0
BITMAP
00F1E0
01F3E0
01F3E0
01F3E0
01E1C0
000000
000000
018000
0F83E0
7F03E0
FF07C0
DF07C0
3F07C0
3E0FC0
3E0F80
3E0F80
7E1F80
7C3F80
7C7F10
7FFFF0
7FEFF8
3F8FE0
1E0380
ENDCHAR

STARTCHAR dotlessi
ENCODING 253
SWIDTH 380 0
DWIDTH 13 0
BBX 11 16 3 0
BITMAP
0380
7F80
7F80
FF00
1F00
1F00
3F00
3E00
3E00
3E00
7C00
7C40
7FE0
7FC0
3F80
1E00
ENDCHAR

STARTCHAR scedilla
ENCODING 254
SWIDTH 540 0
DWIDTH 18 0
BBX 17 23 3 -7
BITMAP
03FC00
0FFF00
1FFF80
3F1F80
3E0780
3F8000
3FF000
1FFC00
0FFE00
01FF00
E03F00
F01F00
FC3F00
FFFE00
7FFC00
0FE000
030000
03C000
00E000
04E000
0CE000
0FC000
078000
ENDCHAR

STARTCHAR ydieresis
ENCODING 255
SWIDTH 600 0
DWIDTH 20 0
BBX 21 30 1 -7
BITMAP
0078F0
00F9F0
00F9F0
00F9F0
0070E0
000000
000000
006000
03C1F8
1FC1F0
3FC1F0
37C1F0
0F83F0
0F83E0
0F83E0
0F87E0
1F87E0
1F0FC0
1F1FC0
1FFFC0
1FFBC0
0FEF80
07CF80
000F80
701F00
F83F00
FCFE00
FFFC00
7FF800
3FC000
ENDCHAR
ENDFONT
